<?xml version="1.0" encoding="iso-8859-1"?>
<!-- Generator: Adobe Illustrator 18.1.1, SVG Export Plug-In . SVG Version: 6.00 Build 0)  -->
<svg xmlns="http://www.w3.org/2000/svg" xmlns:xlink="http://www.w3.org/1999/xlink" version="1.1" id="Capa_1" x="0px" y="0px" viewBox="0 0 61.321 61.321" style="enable-background:new 0 0 61.321 61.321;" xml:space="preserve" width="512px" height="512px">
<g>
	<g>
		<circle cx="33.625" cy="11.534" r="5.72" fill="#4d4a5e"/>
		<path d="M57.911,20.211c-5.77-0.344-11.5-0.958-17.207-1.853c-1.883-1.139-4.508-1.169-6.348-0.089    c-3.025,1.773-3.529,5.266-2.145,8.234c1.396,2.992,0.777,5.532-1.084,8.1c-0.363,0.506-0.605,1.06-0.739,1.638    c-7.526,5.211-18.015,7.291-26.968,7.048c-4.567-0.125-4.554,6.952,0,7.076c9.734,0.264,21.341-1.967,29.733-7.456    c0.146,0.065,0.301,0.126,0.463,0.176c1.604,0.495,3.152,1.05,4.645,1.722c-1.915,1.596-3.881,3.133-6.065,4.195    c-4.102,1.999-0.513,8.102,3.571,6.111c3.882-1.893,7.039-5.235,10.484-7.784c2.229-1.651,2.287-4.469,0-6.11    c-1.168-0.838-2.401-1.561-3.676-2.203c2.348-4.074,2.801-8.591,1.883-13.021c4.467,0.582,8.949,1.028,13.453,1.296    C62.47,27.559,62.444,20.481,57.911,20.211z" fill="#4d4a5e"/>
	</g>
</g>
<g>
</g>
<g>
</g>
<g>
</g>
<g>
</g>
<g>
</g>
<g>
</g>
<g>
</g>
<g>
</g>
<g>
</g>
<g>
</g>
<g>
</g>
<g>
</g>
<g>
</g>
<g>
</g>
<g>
</g>
</svg>
